<svg xmlns="http://www.w3.org/2000/svg" viewBox="0 0 900 620" font-family="Segoe UI, system-ui, sans-serif">
  <defs>
    <linearGradient id="bgGrad" x1="0%" y1="0%" x2="100%" y2="100%">
      <stop offset="0%" style="stop-color:#0f172a"/>
      <stop offset="100%" style="stop-color:#1e293b"/>
    </linearGradient>
    <linearGradient id="blueGrad" x1="0%" y1="0%" x2="100%" y2="100%">
      <stop offset="0%" style="stop-color:#3b82f6"/>
      <stop offset="100%" style="stop-color:#2563eb"/>
    </linearGradient>
    <linearGradient id="purpleGrad" x1="0%" y1="0%" x2="100%" y2="100%">
      <stop offset="0%" style="stop-color:#8b5cf6"/>
      <stop offset="100%" style="stop-color:#7c3aed"/>
    </linearGradient>
    <linearGradient id="greenGrad" x1="0%" y1="0%" x2="100%" y2="100%">
      <stop offset="0%" style="stop-color:#10b981"/>
      <stop offset="100%" style="stop-color:#059669"/>
    </linearGradient>
    <linearGradient id="amberGrad" x1="0%" y1="0%" x2="100%" y2="100%">
      <stop offset="0%" style="stop-color:#f59e0b"/>
      <stop offset="100%" style="stop-color:#d97706"/>
    </linearGradient>
    <filter id="shadow">
      <feDropShadow dx="0" dy="4" stdDeviation="6" flood-color="#000" flood-opacity="0.4"/>
    </filter>
    <marker id="arrow" markerWidth="8" markerHeight="8" refX="6" refY="3" orient="auto">
      <path d="M0,0 L0,6 L8,3 z" fill="#64748b"/>
    </marker>
    <marker id="arrowBlue" markerWidth="8" markerHeight="8" refX="6" refY="3" orient="auto">
      <path d="M0,0 L0,6 L8,3 z" fill="#3b82f6"/>
    </marker>
  </defs>

  <!-- Background -->
  <rect width="900" height="620" fill="url(#bgGrad)" rx="16"/>

  <!-- Title -->
  <text x="450" y="42" text-anchor="middle" font-size="22" font-weight="700" fill="white" letter-spacing="0.5">Cheta Interviewer AI — Architecture</text>
  <line x1="200" y1="54" x2="700" y2="54" stroke="#334155" stroke-width="1"/>

  <!-- ═══════════════════════════════ FRONTEND ZONE ═══════════════════════════════ -->
  <rect x="30" y="70" width="380" height="480" rx="14" fill="#1e293b" stroke="#334155" stroke-width="1.5" filter="url(#shadow)"/>
  <rect x="30" y="70" width="380" height="36" rx="14" fill="url(#blueGrad)"/>
  <rect x="30" y="92" width="380" height="14" fill="url(#blueGrad)"/>
  <text x="220" y="94" text-anchor="middle" font-size="13" font-weight="700" fill="white" letter-spacing="1">FRONTEND  ·  React + TypeScript + Vite</text>

  <!-- Page boxes -->
  <!-- Landing -->
  <rect x="52" y="122" width="155" height="52" rx="8" fill="#0f172a" stroke="#3b82f6" stroke-width="1"/>
  <text x="129" y="143" text-anchor="middle" font-size="11" font-weight="600" fill="#93c5fd">Landing Page</text>
  <text x="129" y="160" text-anchor="middle" font-size="10" fill="#64748b">Entry / Hero</text>

  <!-- JD Page -->
  <rect x="220" y="122" width="168" height="52" rx="8" fill="#0f172a" stroke="#3b82f6" stroke-width="1"/>
  <text x="304" y="143" text-anchor="middle" font-size="11" font-weight="600" fill="#93c5fd">Job Description</text>
  <text x="304" y="160" text-anchor="middle" font-size="10" fill="#64748b">Paste JD → extract skills</text>

  <!-- Upload Page -->
  <rect x="52" y="192" width="155" height="52" rx="8" fill="#0f172a" stroke="#8b5cf6" stroke-width="1"/>
  <text x="129" y="213" text-anchor="middle" font-size="11" font-weight="600" fill="#c4b5fd">Resume Upload</text>
  <text x="129" y="230" text-anchor="middle" font-size="10" fill="#64748b">PDF / DOCX parsing</text>

  <!-- Interview Page -->
  <rect x="220" y="192" width="168" height="52" rx="8" fill="#0f172a" stroke="#8b5cf6" stroke-width="1"/>
  <text x="304" y="213" text-anchor="middle" font-size="11" font-weight="600" fill="#c4b5fd">Interview</text>
  <text x="304" y="230" text-anchor="middle" font-size="10" fill="#64748b">Q&amp;A loop · audio playback</text>

  <!-- Report Page -->
  <rect x="136" y="262" width="168" height="52" rx="8" fill="#0f172a" stroke="#10b981" stroke-width="1"/>
  <text x="220" y="283" text-anchor="middle" font-size="11" font-weight="600" fill="#6ee7b7">Report</text>
  <text x="220" y="300" text-anchor="middle" font-size="10" fill="#64748b">Charts · PDF export</text>

  <!-- Components section -->
  <text x="220" y="338" text-anchor="middle" font-size="11" font-weight="600" fill="#94a3b8" letter-spacing="0.5">COMPONENTS</text>
  <rect x="52" y="348" width="100" height="40" rx="6" fill="#0f172a" stroke="#475569" stroke-width="1"/>
  <text x="102" y="372" text-anchor="middle" font-size="10" fill="#94a3b8">QuestionCard</text>

  <rect x="168" y="348" width="100" height="40" rx="6" fill="#0f172a" stroke="#475569" stroke-width="1"/>
  <text x="218" y="372" text-anchor="middle" font-size="10" fill="#94a3b8">AudioRecorder</text>

  <rect x="284" y="348" width="100" height="40" rx="6" fill="#0f172a" stroke="#475569" stroke-width="1"/>
  <text x="334" y="372" text-anchor="middle" font-size="10" fill="#94a3b8">ScorePanel</text>

  <!-- Services section -->
  <text x="220" y="410" text-anchor="middle" font-size="11" font-weight="600" fill="#94a3b8" letter-spacing="0.5">STATE &amp; SERVICES</text>
  <rect x="52" y="420" width="336" height="40" rx="6" fill="#0f172a" stroke="#475569" stroke-width="1"/>
  <text x="220" y="435" text-anchor="middle" font-size="10" fill="#94a3b8">api.ts — typed fetch client</text>
  <text x="220" y="450" text-anchor="middle" font-size="10" fill="#64748b">localStorage: sessionId · firstQuestion · firstAudio · jdRole</text>

  <!-- Web APIs -->
  <rect x="52" y="476" width="155" height="40" rx="6" fill="#0f172a" stroke="#475569" stroke-width="1"/>
  <text x="129" y="491" text-anchor="middle" font-size="10" fill="#94a3b8">Web Audio API</text>
  <text x="129" y="506" text-anchor="middle" font-size="10" fill="#64748b">Audio recording</text>

  <rect x="220" y="476" width="168" height="40" rx="6" fill="#0f172a" stroke="#475569" stroke-width="1"/>
  <text x="304" y="491" text-anchor="middle" font-size="10" fill="#94a3b8">Recharts + jsPDF</text>
  <text x="304" y="506" text-anchor="middle" font-size="10" fill="#64748b">Visualization &amp; export</text>


  <!-- ═══════════════════════════════ BACKEND ZONE ═══════════════════════════════ -->
  <rect x="490" y="70" width="380" height="480" rx="14" fill="#1e293b" stroke="#334155" stroke-width="1.5" filter="url(#shadow)"/>
  <rect x="490" y="70" width="380" height="36" rx="14" fill="url(#purpleGrad)"/>
  <rect x="490" y="92" width="380" height="14" fill="url(#purpleGrad)"/>
  <text x="680" y="94" text-anchor="middle" font-size="13" font-weight="700" fill="white" letter-spacing="1">BACKEND  ·  Python + FastAPI</text>

  <!-- Endpoints -->
  <text x="680" y="130" text-anchor="middle" font-size="11" font-weight="600" fill="#94a3b8" letter-spacing="0.5">API ENDPOINTS</text>

  <rect x="510" y="138" width="160" height="32" rx="6" fill="#0f172a" stroke="#8b5cf6" stroke-width="1"/>
  <text x="590" y="158" text-anchor="middle" font-size="10" fill="#c4b5fd">POST /submit-jd</text>

  <rect x="688" y="138" width="162" height="32" rx="6" fill="#0f172a" stroke="#8b5cf6" stroke-width="1"/>
  <text x="769" y="158" text-anchor="middle" font-size="10" fill="#c4b5fd">POST /upload-resume</text>

  <rect x="510" y="182" width="160" height="32" rx="6" fill="#0f172a" stroke="#8b5cf6" stroke-width="1"/>
  <text x="590" y="202" text-anchor="middle" font-size="10" fill="#c4b5fd">POST /transcribe-audio</text>

  <rect x="688" y="182" width="162" height="32" rx="6" fill="#0f172a" stroke="#8b5cf6" stroke-width="1"/>
  <text x="769" y="202" text-anchor="middle" font-size="10" fill="#c4b5fd">POST /submit-answer</text>

  <rect x="598" y="226" width="162" height="32" rx="6" fill="#0f172a" stroke="#8b5cf6" stroke-width="1"/>
  <text x="679" y="246" text-anchor="middle" font-size="10" fill="#c4b5fd">GET /generate-report</text>

  <!-- Services -->
  <text x="680" y="280" text-anchor="middle" font-size="11" font-weight="600" fill="#94a3b8" letter-spacing="0.5">SERVICES</text>

  <rect x="510" y="290" width="100" height="40" rx="6" fill="#0f172a" stroke="#475569" stroke-width="1"/>
  <text x="560" y="305" text-anchor="middle" font-size="10" fill="#94a3b8">jd_service</text>
  <text x="560" y="320" text-anchor="middle" font-size="9" fill="#64748b">skill extraction</text>

  <rect x="624" y="290" width="100" height="40" rx="6" fill="#0f172a" stroke="#475569" stroke-width="1"/>
  <text x="674" y="305" text-anchor="middle" font-size="10" fill="#94a3b8">resume_service</text>
  <text x="674" y="320" text-anchor="middle" font-size="9" fill="#64748b">profile parsing</text>

  <rect x="738" y="290" width="112" height="40" rx="6" fill="#0f172a" stroke="#475569" stroke-width="1"/>
  <text x="794" y="305" text-anchor="middle" font-size="10" fill="#94a3b8">interview_service</text>
  <text x="794" y="320" text-anchor="middle" font-size="9" fill="#64748b">Q generation</text>

  <rect x="510" y="346" width="100" height="40" rx="6" fill="#0f172a" stroke="#475569" stroke-width="1"/>
  <text x="560" y="361" text-anchor="middle" font-size="10" fill="#94a3b8">eval_service</text>
  <text x="560" y="376" text-anchor="middle" font-size="9" fill="#64748b">4-rubric scoring</text>

  <rect x="624" y="346" width="100" height="40" rx="6" fill="#0f172a" stroke="#475569" stroke-width="1"/>
  <text x="674" y="361" text-anchor="middle" font-size="10" fill="#94a3b8">report_service</text>
  <text x="674" y="376" text-anchor="middle" font-size="9" fill="#64748b">metrics compile</text>

  <rect x="738" y="346" width="112" height="40" rx="6" fill="#0f172a" stroke="#475569" stroke-width="1"/>
  <text x="794" y="361" text-anchor="middle" font-size="10" fill="#94a3b8">gemini_client</text>
  <text x="794" y="376" text-anchor="middle" font-size="9" fill="#64748b">LLM · STT · TTS</text>

  <!-- State -->
  <rect x="510" y="404" width="340" height="40" rx="6" fill="#0f172a" stroke="#475569" stroke-width="1"/>
  <text x="680" y="419" text-anchor="middle" font-size="10" fill="#94a3b8">InterviewState (in-memory SESSIONS dict)</text>
  <text x="680" y="434" text-anchor="middle" font-size="10" fill="#64748b">UUID session token · JD profile · resume profile · scores · transcript log</text>

  <!-- Document parser -->
  <rect x="510" y="460" width="340" height="40" rx="6" fill="#0f172a" stroke="#475569" stroke-width="1"/>
  <text x="680" y="479" text-anchor="middle" font-size="10" fill="#94a3b8">document_parser.py</text>
  <text x="680" y="494" text-anchor="middle" font-size="10" fill="#64748b">PyPDF2 · pdfminer · python-docx</text>

  <!-- ═══════════════════════════════ AI ZONE ═══════════════════════════════ -->
  <rect x="490" y="565" width="380" height="42" rx="10" fill="#0f172a" stroke="#10b981" stroke-width="1.5" filter="url(#shadow)"/>
  <text x="680" y="581" text-anchor="middle" font-size="11" font-weight="700" fill="#6ee7b7" letter-spacing="0.5">GOOGLE GEMINI API</text>
  <text x="680" y="597" text-anchor="middle" font-size="10" fill="#64748b">gemini-3.1-flash-lite-preview  ·  LLM  ·  Audio Transcription  ·  gTTS</text>

  <!-- ═══════════════════════════════ ARROWS ═══════════════════════════════ -->
  <!-- Frontend ↔ Backend HTTP -->
  <line x1="410" y1="310" x2="490" y2="310" stroke="#3b82f6" stroke-width="2" stroke-dasharray="6,3" marker-end="url(#arrowBlue)"/>
  <line x1="490" y1="330" x2="410" y2="330" stroke="#8b5cf6" stroke-width="2" stroke-dasharray="6,3" marker-end="url(#arrow)"/>
  <text x="450" y="305" text-anchor="middle" font-size="9" fill="#3b82f6">HTTP POST/GET</text>
  <text x="450" y="345" text-anchor="middle" font-size="9" fill="#8b5cf6">JSON response</text>

  <!-- Backend ↔ Gemini -->
  <line x1="680" y1="557" x2="680" y2="507" stroke="#10b981" stroke-width="2" stroke-dasharray="5,3" marker-end="url(#arrow)"/>
  <text x="720" y="540" text-anchor="middle" font-size="9" fill="#10b981">API calls</text>

</svg>
